<?xml version="1.0" standalone="no"?>
<!DOCTYPE svg PUBLIC "-//W3C//DTD SVG 20010904//EN"
 "http://www.w3.org/TR/2001/REC-SVG-20010904/DTD/svg10.dtd">
<svg version="1.0" xmlns="http://www.w3.org/2000/svg"
 width="415.000000pt" height="270.000000pt" viewBox="0 0 415.000000 270.000000"
 preserveAspectRatio="xMidYMid meet">

<g transform="translate(0.000000,270.000000) scale(0.100000,-0.100000)"
fill="#000000" stroke="none">
<path d="M0 1350 l0 -1350 2075 0 2075 0 0 1350 0 1350 -2075 0 -2075 0 0
-1350z m495 1173 c33 -49 124 -185 201 -303 78 -118 226 -343 329 -500 104
-157 243 -368 310 -470 67 -102 193 -293 281 -425 l159 -240 3 50 c2 28 2 322
-1 655 -4 555 -6 615 -25 730 -56 333 -177 539 -333 565 -36 6 -65 24 -40 25
6 1 151 1 321 1 171 0 315 0 321 -1 24 0 -3 -18 -38 -24 -80 -13 -121 -56
-150 -161 -24 -85 -32 -422 -32 -1358 -1 -714 -4 -898 -13 -895 -15 5 -24 19
-264 383 -261 396 -791 1200 -976 1480 -90 138 -191 291 -224 340 l-59 90 -3
-665 c-2 -417 1 -721 8 -814 23 -308 89 -526 197 -646 48 -53 127 -100 171
-100 13 0 22 -6 22 -15 0 -13 -40 -15 -322 -13 -208 2 -323 7 -322 13 1 6 17
13 36 16 50 8 99 39 122 78 34 58 46 140 57 386 13 291 5 1523 -10 1635 -22
153 -61 219 -142 240 -115 29 -89 35 148 33 l208 -2 60 -88z m2318 87 c22 -1
-7 -18 -40 -24 -91 -15 -130 -66 -160 -212 -16 -81 -18 -162 -18 -959 0 -797
2 -878 18 -959 30 -146 69 -199 159 -214 24 -4 43 -12 43 -17 0 -6 -122 -11
-322 -13 -283 -2 -323 0 -323 13 0 9 9 15 25 15 40 0 88 24 118 59 72 86 79
205 74 1217 -4 721 -6 827 -21 889 -9 38 -25 83 -34 100 -23 39 -76 74 -124
81 -35 6 -45 14 -34 25 3 3 560 2 639 -1z m1014 -19 c20 -26 44 -111 50 -177
8 -84 -20 -212 -64 -303 -48 -97 -166 -222 -286 -302 -134 -90 -258 -146 -591
-269 -176 -65 -216 -90 -216 -130 0 -40 34 -60 165 -100 211 -65 339 -133 424
-225 23 -25 103 -138 177 -250 74 -113 167 -248 207 -302 126 -168 262 -276
366 -290 26 -4 41 -11 41 -20 0 -12 -33 -14 -204 -11 l-204 3 -39 31 c-46 38
-136 164 -353 494 -224 342 -307 435 -480 536 -93 54 -130 93 -130 138 0 60
53 101 298 225 252 129 349 190 445 281 88 82 141 160 180 264 26 70 30 95 31
186 1 90 -3 113 -23 157 -13 29 -29 58 -37 64 -26 21 -5 25 113 21 93 -4 120
-8 130 -21z"/>
</g>
</svg>
